<svg id="visual" viewBox="0 0 960 300" width="960" height="300" xmlns="http://www.w3.org/2000/svg" xmlns:xlink="http://www.w3.org/1999/xlink" version="1.1"><rect x="0" y="0" width="960" height="300" fill="#EFEFEF"></rect><path d="M0 183L20 175.8C40 168.7 80 154.3 120 148.2C160 142 200 144 240 146.3C280 148.7 320 151.3 360 157C400 162.7 440 171.3 480 170.3C520 169.3 560 158.7 600 160.7C640 162.7 680 177.3 720 184.3C760 191.3 800 190.7 840 184C880 177.3 920 164.7 940 158.3L960 152L960 0L940 0C920 0 880 0 840 0C800 0 760 0 720 0C680 0 640 0 600 0C560 0 520 0 480 0C440 0 400 0 360 0C320 0 280 0 240 0C200 0 160 0 120 0C80 0 40 0 20 0L0 0Z" fill="#c9bbcf"></path><path d="M0 132L20 127.8C40 123.7 80 115.3 120 112.3C160 109.3 200 111.7 240 113C280 114.3 320 114.7 360 115.7C400 116.7 440 118.3 480 120.8C520 123.3 560 126.7 600 125.8C640 125 680 120 720 121C760 122 800 129 840 128C880 127 920 118 940 113.5L960 109L960 0L940 0C920 0 880 0 840 0C800 0 760 0 720 0C680 0 640 0 600 0C560 0 520 0 480 0C440 0 400 0 360 0C320 0 280 0 240 0C200 0 160 0 120 0C80 0 40 0 20 0L0 0Z" fill="#c6c9de"></path><path d="M0 78L20 84.8C40 91.7 80 105.3 120 107.5C160 109.7 200 100.3 240 100.7C280 101 320 111 360 114C400 117 440 113 480 109.5C520 106 560 103 600 100.5C640 98 680 96 720 98.5C760 101 800 108 840 111.3C880 114.7 920 114.3 940 114.2L960 114L960 0L940 0C920 0 880 0 840 0C800 0 760 0 720 0C680 0 640 0 600 0C560 0 520 0 480 0C440 0 400 0 360 0C320 0 280 0 240 0C200 0 160 0 120 0C80 0 40 0 20 0L0 0Z" fill="#c5d7e7"></path><path d="M0 52L20 58.7C40 65.3 80 78.7 120 79C160 79.3 200 66.7 240 65C280 63.3 320 72.7 360 75.8C400 79 440 76 480 75.5C520 75 560 77 600 75.3C640 73.7 680 68.3 720 64.8C760 61.3 800 59.7 840 64C880 68.3 920 78.7 940 83.8L960 89L960 0L940 0C920 0 880 0 840 0C800 0 760 0 720 0C680 0 640 0 600 0C560 0 520 0 480 0C440 0 400 0 360 0C320 0 280 0 240 0C200 0 160 0 120 0C80 0 40 0 20 0L0 0Z" fill="#cae4eb"></path><path d="M0 15L20 20.7C40 26.3 80 37.7 120 38C160 38.3 200 27.7 240 28.8C280 30 320 43 360 42.3C400 41.7 440 27.3 480 25.3C520 23.3 560 33.7 600 41C640 48.3 680 52.7 720 47.5C760 42.3 800 27.7 840 21.2C880 14.7 920 16.3 940 17.2L960 18L960 0L940 0C920 0 880 0 840 0C800 0 760 0 720 0C680 0 640 0 600 0C560 0 520 0 480 0C440 0 400 0 360 0C320 0 280 0 240 0C200 0 160 0 120 0C80 0 40 0 20 0L0 0Z" fill="#d6efed"></path></svg>