<svg id="visual" viewBox="0 0 960 300" width="960" height="300" xmlns="http://www.w3.org/2000/svg" xmlns:xlink="http://www.w3.org/1999/xlink" version="1.1"><rect x="0" y="0" width="960" height="300" fill="#EFEFEF"></rect><path d="M0 105L20 104.7C40 104.3 80 103.7 120 107.5C160 111.3 200 119.7 240 127.8C280 136 320 144 360 149C400 154 440 156 480 151.5C520 147 560 136 600 132.3C640 128.7 680 132.3 720 135.7C760 139 800 142 840 139.2C880 136.3 920 127.7 940 123.3L960 119L960 301L940 301C920 301 880 301 840 301C800 301 760 301 720 301C680 301 640 301 600 301C560 301 520 301 480 301C440 301 400 301 360 301C320 301 280 301 240 301C200 301 160 301 120 301C80 301 40 301 20 301L0 301Z" fill="#ffffff"></path><path d="M0 166L20 168.7C40 171.3 80 176.7 120 175C160 173.3 200 164.7 240 161.3C280 158 320 160 360 161C400 162 440 162 480 166.2C520 170.3 560 178.7 600 181.5C640 184.3 680 181.7 720 177C760 172.3 800 165.7 840 159C880 152.3 920 145.7 940 142.3L960 139L960 301L940 301C920 301 880 301 840 301C800 301 760 301 720 301C680 301 640 301 600 301C560 301 520 301 480 301C440 301 400 301 360 301C320 301 280 301 240 301C200 301 160 301 120 301C80 301 40 301 20 301L0 301Z" fill="#fff8f8"></path><path d="M0 206L20 206.5C40 207 80 208 120 204C160 200 200 191 240 186.2C280 181.3 320 180.7 360 184.8C400 189 440 198 480 205C520 212 560 217 600 219.7C640 222.3 680 222.7 720 220C760 217.3 800 211.7 840 206.7C880 201.7 920 197.3 940 195.2L960 193L960 301L940 301C920 301 880 301 840 301C800 301 760 301 720 301C680 301 640 301 600 301C560 301 520 301 480 301C440 301 400 301 360 301C320 301 280 301 240 301C200 301 160 301 120 301C80 301 40 301 20 301L0 301Z" fill="#fff1f1"></path><path d="M0 207L20 214.2C40 221.3 80 235.7 120 243.7C160 251.7 200 253.3 240 254C280 254.7 320 254.3 360 246C400 237.7 440 221.3 480 220.8C520 220.3 560 235.7 600 239.3C640 243 680 235 720 229.8C760 224.7 800 222.3 840 226.7C880 231 920 242 940 247.5L960 253L960 301L940 301C920 301 880 301 840 301C800 301 760 301 720 301C680 301 640 301 600 301C560 301 520 301 480 301C440 301 400 301 360 301C320 301 280 301 240 301C200 301 160 301 120 301C80 301 40 301 20 301L0 301Z" fill="#ffeaea"></path><path d="M0 249L20 254.8C40 260.7 80 272.3 120 275.2C160 278 200 272 240 268.8C280 265.7 320 265.3 360 269C400 272.7 440 280.3 480 276.8C520 273.3 560 258.7 600 258.7C640 258.7 680 273.3 720 280.7C760 288 800 288 840 284.5C880 281 920 274 940 270.5L960 267L960 301L940 301C920 301 880 301 840 301C800 301 760 301 720 301C680 301 640 301 600 301C560 301 520 301 480 301C440 301 400 301 360 301C320 301 280 301 240 301C200 301 160 301 120 301C80 301 40 301 20 301L0 301Z" fill="#ffe3e3"></path></svg>